# xmcd
#
# Track frame offsets:
#	150
#	16374
#	32811
#	48458
#	58504
#	74732
#	92624
#	108409
#	126007
#	142574
#	160993
#	176951
#	192343
#	206866
#	217551
#	229114
#	229942
#	230680
#	231432
#
# Disc length: 3094
#
# Revision: 1
# Processed by: cddbd v1.5.1PL0 Copyright (c) Steve Scherf et al.
# Submitted via: VisiTrax 2.9.5.180 - For more info visit www.synapsa.com
# Normalized: r0:DSETVAR1
#
DISCID=0f0c1413
DTITLE=Various Artist - CDX 223 September 1999
DYEAR=1999
DGENRE=
TTITLE0=Oak Ridge Boys - Ain't no short way home
TTITLE1=Ketih Harling - Bring it on
TTITLE2=Steve Hol - Don't make me beg
TTITLE3=Hal Bynum - I wanta be
TTITLE4=Vince Gill - Loving you makes me a better man
TTITLE5=T Graham Brown - Memphis women and chicken
TTITLE6=Travis Tritt /George Thoroggod - Move it on over
TTITLE7=Charlie Robison - My hometown
TTITLE8=Kenny Chesney - She thinks my tractor 's sexy
TTITLE9=Alabama - Small stuff
TTITLE10=Tara Lyn Hart - Stuff that matters
TTITLE11=SheDaisy - This woman needs
TTITLE12=Aaron Tippin - What this country needs
TTITLE13=Carroll Brown/Ace Basin - All my old flames (put me out)
TTITLE14=Carroll Brown/Ace Basin - On my butt
TTITLE15=John Berry - Liner
TTITLE16=John Berry - Liner
TTITLE17=John Berry - Liner
TTITLE18=John Berry - Liner
EXTD=
EXTT0=
EXTT1=
EXTT2=
EXTT3=
EXTT4=
EXTT5=
EXTT6=
EXTT7=
EXTT8=
EXTT9=
EXTT10=
EXTT11=
EXTT12=
EXTT13=
EXTT14=
EXTT15=
EXTT16=
EXTT17=
EXTT18=
PLAYORDER=
